<svg width="21" height="21" viewBox="0 0 21 21" fill="none" xmlns="http://www.w3.org/2000/svg">
<path d="M11.7822 16.125C11.7 16.1254 11.6187 16.1094 11.5428 16.0779C11.467 16.0464 11.3982 16.0001 11.3405 15.9417C11.2235 15.8245 11.1577 15.6657 11.1577 15.5C11.1577 15.3344 11.2235 15.1756 11.3405 15.0584L15.8988 10.5L11.3405 5.9417C11.2301 5.82322 11.17 5.66652 11.1729 5.5046C11.1757 5.34268 11.2413 5.18819 11.3558 5.07368C11.4703 4.95917 11.6248 4.89358 11.7867 4.89072C11.9486 4.88787 12.1054 4.94797 12.2238 5.05837L17.2238 10.0584C17.3409 10.1756 17.4066 10.3344 17.4066 10.5C17.4066 10.6657 17.3409 10.8245 17.2238 10.9417L12.2238 15.9417C12.1661 16.0001 12.0973 16.0464 12.0215 16.0779C11.9456 16.1094 11.8643 16.1254 11.7822 16.125Z" fill="white"/>
<path d="M16.7824 11.125H5.11572C4.94996 11.125 4.79099 11.0592 4.67378 10.9419C4.55657 10.8247 4.49072 10.6658 4.49072 10.5C4.49072 10.3342 4.55657 10.1753 4.67378 10.0581C4.79099 9.94085 4.94996 9.875 5.11572 9.875H16.7824C16.9482 9.875 17.1071 9.94085 17.2243 10.0581C17.3415 10.1753 17.4074 10.3342 17.4074 10.5C17.4074 10.6658 17.3415 10.8247 17.2243 10.9419C17.1071 11.0592 16.9482 11.125 16.7824 11.125Z" fill="white"/>
</svg>
